<mxfile host="app.diagrams.net" modified="2023-02-15T09:19:53.496Z" agent="5.0 (Macintosh; Intel Mac OS X 10_15_7) AppleWebKit/537.36 (KHTML, like Gecko) Chrome/109.0.0.0 Safari/537.36" etag="yTzwHjyWnSJau2dka3rD" version="20.8.18" type="github">
  <diagram name="第 1 页" id="nmpLaOHAxDWhQXPXWXdq">
    <mxGraphModel dx="1145" dy="705" grid="1" gridSize="10" guides="1" tooltips="1" connect="1" arrows="1" fold="1" page="1" pageScale="1" pageWidth="827" pageHeight="1169" math="0" shadow="0">
      <root>
        <mxCell id="0" />
        <mxCell id="1" parent="0" />
        <mxCell id="8EOBdqu7QPf5o4WA6zlR-7" value="" style="rounded=1;whiteSpace=wrap;html=1;dashed=1;arcSize=12;" vertex="1" parent="1">
          <mxGeometry x="30" y="600" width="850" height="110" as="geometry" />
        </mxCell>
        <mxCell id="8EOBdqu7QPf5o4WA6zlR-2" value="mySql" style="shape=cylinder3;whiteSpace=wrap;html=1;boundedLbl=1;backgroundOutline=1;size=15;" vertex="1" parent="1">
          <mxGeometry x="40" y="620" width="190" height="60" as="geometry" />
        </mxCell>
        <mxCell id="8EOBdqu7QPf5o4WA6zlR-3" value="ElasticSearch 搜索" style="shape=cylinder3;whiteSpace=wrap;html=1;boundedLbl=1;backgroundOutline=1;size=15;" vertex="1" parent="1">
          <mxGeometry x="255" y="620" width="190" height="60" as="geometry" />
        </mxCell>
        <mxCell id="8EOBdqu7QPf5o4WA6zlR-4" value="Redis 缓存" style="shape=cylinder3;whiteSpace=wrap;html=1;boundedLbl=1;backgroundOutline=1;size=15;" vertex="1" parent="1">
          <mxGeometry x="467" y="620" width="190" height="60" as="geometry" />
        </mxCell>
        <mxCell id="8EOBdqu7QPf5o4WA6zlR-5" value="MINIO 对象存储" style="shape=cylinder3;whiteSpace=wrap;html=1;boundedLbl=1;backgroundOutline=1;size=15;" vertex="1" parent="1">
          <mxGeometry x="680" y="620" width="190" height="60" as="geometry" />
        </mxCell>
        <mxCell id="8EOBdqu7QPf5o4WA6zlR-8" value="数据存储" style="text;html=1;strokeColor=none;fillColor=none;align=center;verticalAlign=middle;whiteSpace=wrap;rounded=0;" vertex="1" parent="1">
          <mxGeometry x="420" y="680" width="60" height="30" as="geometry" />
        </mxCell>
        <mxCell id="8EOBdqu7QPf5o4WA6zlR-9" value="" style="rounded=1;whiteSpace=wrap;html=1;dashed=1;arcSize=5;" vertex="1" parent="1">
          <mxGeometry x="30" y="350" width="850" height="240" as="geometry" />
        </mxCell>
        <mxCell id="8EOBdqu7QPf5o4WA6zlR-10" value="应用服务服务" style="text;html=1;strokeColor=none;fillColor=none;align=center;verticalAlign=middle;whiteSpace=wrap;rounded=0;" vertex="1" parent="1">
          <mxGeometry x="415" y="360" width="80" height="30" as="geometry" />
        </mxCell>
        <mxCell id="8EOBdqu7QPf5o4WA6zlR-11" value="指标中心" style="rounded=1;whiteSpace=wrap;html=1;dashed=1;fillColor=#dae8fc;strokeColor=#6c8ebf;verticalAlign=top;" vertex="1" parent="1">
          <mxGeometry x="50" y="400" width="240" height="150" as="geometry" />
        </mxCell>
        <mxCell id="8EOBdqu7QPf5o4WA6zlR-12" value="智能研报" style="rounded=1;whiteSpace=wrap;html=1;dashed=1;fillColor=#dae8fc;strokeColor=#6c8ebf;verticalAlign=top;" vertex="1" parent="1">
          <mxGeometry x="335" y="400" width="230" height="150" as="geometry" />
        </mxCell>
        <mxCell id="8EOBdqu7QPf5o4WA6zlR-13" value="研究框架" style="rounded=1;whiteSpace=wrap;html=1;dashed=1;fillColor=#dae8fc;strokeColor=#6c8ebf;verticalAlign=top;" vertex="1" parent="1">
          <mxGeometry x="620" y="400" width="245" height="150" as="geometry" />
        </mxCell>
        <mxCell id="8EOBdqu7QPf5o4WA6zlR-14" value="长图研报" style="rounded=0;whiteSpace=wrap;html=1;dashed=1;" vertex="1" parent="1">
          <mxGeometry x="390" y="430" width="120" height="30" as="geometry" />
        </mxCell>
        <mxCell id="8EOBdqu7QPf5o4WA6zlR-15" value="PPT研报" style="rounded=0;whiteSpace=wrap;html=1;dashed=1;" vertex="1" parent="1">
          <mxGeometry x="390" y="470" width="120" height="30" as="geometry" />
        </mxCell>
        <mxCell id="8EOBdqu7QPf5o4WA6zlR-16" value="Word研报" style="rounded=0;whiteSpace=wrap;html=1;dashed=1;" vertex="1" parent="1">
          <mxGeometry x="390" y="510" width="120" height="30" as="geometry" />
        </mxCell>
        <mxCell id="8EOBdqu7QPf5o4WA6zlR-17" value="脑图" style="rounded=0;whiteSpace=wrap;html=1;dashed=1;" vertex="1" parent="1">
          <mxGeometry x="682.5" y="430" width="120" height="30" as="geometry" />
        </mxCell>
        <mxCell id="8EOBdqu7QPf5o4WA6zlR-18" value="流程图" style="rounded=0;whiteSpace=wrap;html=1;dashed=1;" vertex="1" parent="1">
          <mxGeometry x="682.5" y="470" width="120" height="30" as="geometry" />
        </mxCell>
        <mxCell id="8EOBdqu7QPf5o4WA6zlR-19" value="指标采集" style="rounded=0;whiteSpace=wrap;html=1;dashed=1;" vertex="1" parent="1">
          <mxGeometry x="110" y="430" width="120" height="30" as="geometry" />
        </mxCell>
        <mxCell id="8EOBdqu7QPf5o4WA6zlR-20" value="Excel插件" style="rounded=0;whiteSpace=wrap;html=1;dashed=1;" vertex="1" parent="1">
          <mxGeometry x="110" y="470" width="120" height="30" as="geometry" />
        </mxCell>
        <mxCell id="8EOBdqu7QPf5o4WA6zlR-21" value="" style="rounded=1;whiteSpace=wrap;html=1;dashed=1;" vertex="1" parent="1">
          <mxGeometry x="30" y="210" width="850" height="130" as="geometry" />
        </mxCell>
        <mxCell id="8EOBdqu7QPf5o4WA6zlR-22" value="展示层" style="text;html=1;strokeColor=none;fillColor=none;align=center;verticalAlign=middle;whiteSpace=wrap;rounded=0;" vertex="1" parent="1">
          <mxGeometry x="414" y="210" width="80" height="30" as="geometry" />
        </mxCell>
        <mxCell id="8EOBdqu7QPf5o4WA6zlR-23" value="" style="rounded=1;whiteSpace=wrap;html=1;dashed=1;fillColor=#dae8fc;strokeColor=#6c8ebf;verticalAlign=top;" vertex="1" parent="1">
          <mxGeometry x="180" y="240" width="570" height="90" as="geometry" />
        </mxCell>
        <mxCell id="8EOBdqu7QPf5o4WA6zlR-24" value="图表&lt;br&gt;Echart" style="rounded=0;whiteSpace=wrap;html=1;dashed=1;" vertex="1" parent="1">
          <mxGeometry x="190" y="250" width="100" height="70" as="geometry" />
        </mxCell>
        <mxCell id="8EOBdqu7QPf5o4WA6zlR-25" value="智能研报&lt;br&gt;Tiptap" style="rounded=0;whiteSpace=wrap;html=1;dashed=1;" vertex="1" parent="1">
          <mxGeometry x="300" y="250" width="100" height="70" as="geometry" />
        </mxCell>
        <mxCell id="8EOBdqu7QPf5o4WA6zlR-26" value="请求代理&lt;br&gt;express/nginx" style="rounded=0;whiteSpace=wrap;html=1;dashed=1;" vertex="1" parent="1">
          <mxGeometry x="410" y="250" width="100" height="70" as="geometry" />
        </mxCell>
        <mxCell id="8EOBdqu7QPf5o4WA6zlR-27" value="时间日期&lt;br&gt;moment" style="rounded=0;whiteSpace=wrap;html=1;dashed=1;" vertex="1" parent="1">
          <mxGeometry x="520" y="250" width="100" height="70" as="geometry" />
        </mxCell>
        <mxCell id="8EOBdqu7QPf5o4WA6zlR-28" value="脚手架&lt;br&gt;vuecli" style="rounded=0;whiteSpace=wrap;html=1;dashed=1;" vertex="1" parent="1">
          <mxGeometry x="630" y="250" width="100" height="70" as="geometry" />
        </mxCell>
        <mxCell id="8EOBdqu7QPf5o4WA6zlR-30" value="" style="rounded=0;whiteSpace=wrap;html=1;dashed=1;" vertex="1" parent="1">
          <mxGeometry x="890" y="210" width="90" height="500" as="geometry" />
        </mxCell>
        <mxCell id="8EOBdqu7QPf5o4WA6zlR-32" value="运维管理" style="text;html=1;strokeColor=none;fillColor=none;align=center;verticalAlign=middle;whiteSpace=wrap;rounded=0;" vertex="1" parent="1">
          <mxGeometry x="895" y="220" width="80" height="30" as="geometry" />
        </mxCell>
        <mxCell id="8EOBdqu7QPf5o4WA6zlR-33" value="持续集成&lt;br&gt;jenkins" style="rounded=1;whiteSpace=wrap;html=1;dashed=1;fillColor=#f8cecc;strokeColor=#b85450;" vertex="1" parent="1">
          <mxGeometry x="895" y="255" width="80" height="60" as="geometry" />
        </mxCell>
        <mxCell id="8EOBdqu7QPf5o4WA6zlR-34" value="应用监控&lt;br&gt;Druid" style="rounded=1;whiteSpace=wrap;html=1;dashed=1;fillColor=#f8cecc;strokeColor=#b85450;" vertex="1" parent="1">
          <mxGeometry x="895" y="400" width="80" height="60" as="geometry" />
        </mxCell>
        <mxCell id="8EOBdqu7QPf5o4WA6zlR-35" value="日志收集监控ELK" style="rounded=1;whiteSpace=wrap;html=1;dashed=1;fillColor=#f8cecc;strokeColor=#b85450;" vertex="1" parent="1">
          <mxGeometry x="895" y="570" width="80" height="60" as="geometry" />
        </mxCell>
      </root>
    </mxGraphModel>
  </diagram>
</mxfile>
